<?xml version="1.0" encoding="utf-8"?>
<!-- Generator: Adobe Illustrator 27.8.1, SVG Export Plug-In . SVG Version: 6.00 Build 0)  -->
<svg version="1.1" id="Layer_1" xmlns="http://www.w3.org/2000/svg" xmlns:xlink="http://www.w3.org/1999/xlink" x="0px" y="0px"
	 viewBox="0 0 45 45" style="enable-background:new 0 0 45 45;" xml:space="preserve">
<style type="text/css">
	.st0{fill-rule:evenodd;clip-rule:evenodd;fill:#1C1B17;}
	
		.st1{clip-path:url(#SVGID_00000033338794844776867890000012226201582779311787_);fill:url(#SVGID_00000096024116062986938450000016410160046721988227_);}
	
		.st2{clip-path:url(#SVGID_00000049917862205296883330000002950801771057608334_);fill:url(#SVGID_00000139990744021755462630000011877424896473284779_);}
	
		.st3{clip-path:url(#SVGID_00000133488915316628139950000008932306198278793903_);fill:url(#SVGID_00000045615212130927232860000016280778666454394525_);}
	.st4{filter:url(#Adobe_OpacityMaskFilter);}
	.st5{fill:url(#SVGID_00000090990557498674662810000002666680228193519239_);}
	.st6{mask:url(#SVGID_00000008120339863166054130000009207327125236120195_);fill-rule:evenodd;clip-rule:evenodd;fill:#C70001;}
	.st7{fill-rule:evenodd;clip-rule:evenodd;fill:#FEFEFE;}
</style>
<path class="st0" d="M4.88,4.53c-1.42,13.9-2.13,20.84-2.13,20.84c5.14-12.52,7.71-18.78,7.71-18.78c-2.5-1.5-4-2.4-4.51-2.7
	C5.15,3.41,4.96,3.76,4.88,4.53"/>
<path class="st0" d="M15.1,1.48C7.14,17.4,3.16,25.37,3.16,25.37C14.32,11.8,19.9,5.02,19.9,5.02c-2.11-2.18-3.37-3.48-3.79-3.91
	C15.68,0.66,15.35,0.97,15.1,1.48"/>
<g>
	<defs>
		<path id="SVGID_1_" d="M32.79,14.71c-0.23-0.28-0.64-0.33-0.93-0.1c-0.28,0.23-0.33,0.64-0.1,0.93c0.15,0.18,0.37,0.27,0.59,0.24
			v0l0,0l0.01,0l0,0c0,0,0.01,0,0.01,0l0.01,0l0.01,0l0.01,0l0.01,0l0,0c0,0,0.01,0,0.01,0l0,0l0.01,0l0.01,0c0,0,0.01,0,0.01,0l0,0
			c0,0,0.01,0,0.01,0l0.01,0l0.01,0l0,0c0,0,0.01,0,0.01,0l0,0c0,0,0.01,0,0.01,0l0,0c0,0,0.01,0,0.01-0.01l0,0
			c0,0,0.01,0,0.01-0.01l0,0c0,0,0.01,0,0.01-0.01l0,0l0,0c0,0,0.01,0,0.01-0.01l0,0c0,0,0.01,0,0.01-0.01l0,0c0,0,0.01,0,0.01-0.01
			l0,0c0,0,0.01,0,0.01-0.01l0,0l0,0l0,0c0,0,0.01-0.01,0.01-0.01l0,0l0,0c0,0,0.01-0.01,0.01-0.01l0,0c0,0,0.01-0.01,0.01-0.01l0,0
			c0,0,0.01-0.01,0.01-0.01l0,0c0,0,0.01-0.01,0.01-0.01C32.97,15.41,33.02,14.99,32.79,14.71"/>
	</defs>
	<clipPath id="SVGID_00000128449308361543437530000003131687952507776910_">
		<use xlink:href="#SVGID_1_"  style="overflow:visible;"/>
	</clipPath>
	
		<linearGradient id="SVGID_00000017500945152794304160000009517768983838617002_" gradientUnits="userSpaceOnUse" x1="25.2728" y1="40.3865" x2="34.3125" y2="7.7468">
		<stop  offset="0" style="stop-color:#BE1103"/>
		<stop  offset="1" style="stop-color:#FECC00"/>
	</linearGradient>
	
		<rect x="31.54" y="14.38" style="clip-path:url(#SVGID_00000128449308361543437530000003131687952507776910_);fill:url(#SVGID_00000017500945152794304160000009517768983838617002_);" width="1.48" height="1.42"/>
</g>
<g>
	<defs>
		<path id="SVGID_00000096756775882993345920000015728803397013485459_" d="M32.9,14.44c-0.33-0.3-0.84-0.32-1.2-0.03
			c-0.4,0.32-0.46,0.9-0.14,1.3c0.17,0.22,0.43,0.33,0.69,0.34c-0.09,0.03-0.21,0.03-0.37,0.02c-0.56,1.63-1.02,2.71-1.39,3.23
			c-0.38,0.54-1.02,0.85-1.02-0.01c0-0.51,0.14-1.13,0.43-1.87c0.18-0.55,0.41-1.07,0.7-1.57c-0.53,0.4-0.6,0.04-0.41-0.36
			c0.2-0.42,0.79-1.73,1.16-1.92c0.1-0.05,0.16-0.01,0.17,0.13c0,0.14,0,0.2,0,0.2c0.28-0.44,0.64-0.97,1.1-1.58
			c0.21-0.28,1.14-1.44,0.76-0.29c-0.13,0.44-0.34,1.05-0.63,1.82c-0.05,0.14-0.09,0.25-0.11,0.33
			C32.75,14.25,32.83,14.35,32.9,14.44L32.9,14.44z"/>
	</defs>
	<clipPath id="SVGID_00000015334451285074856040000001138236278017884054_">
		<use xlink:href="#SVGID_00000096756775882993345920000015728803397013485459_"  style="overflow:visible;"/>
	</clipPath>
	
		<linearGradient id="SVGID_00000170236454736086943910000001155720305073405862_" gradientUnits="userSpaceOnUse" x1="24.7644" y1="40.2459" x2="33.8041" y2="7.6059">
		<stop  offset="0" style="stop-color:#BE1103"/>
		<stop  offset="1" style="stop-color:#FECC00"/>
	</linearGradient>
	
		<rect x="29.46" y="10.89" style="clip-path:url(#SVGID_00000015334451285074856040000001138236278017884054_);fill:url(#SVGID_00000170236454736086943910000001155720305073405862_);" width="4.3" height="9.26"/>
</g>
<g>
	<defs>
		<path id="SVGID_00000016761194301582903870000004611946099201435062_" d="M0.19,35.08c6.89,2.26,13.62-0.13,18.94-4.61
			c-2.57,1.61-4.93,2.75-7.06,3.42C8.22,31.9,4.36,29.9,0.5,27.9C1.42,15.81,2.07,8.48,3.01,5.78C2.45,19.87,2.18,26.91,2.18,26.91
			C22.73,14.4,33.01,8.14,33.01,8.14c0.84-0.5,2.53-1.15,3.08,0.1c5.61,12.88,8.42,19.33,8.42,19.33c0.32,0.76,0.51,1.84-0.27,2.38
			c-5.42,3.73-11.1,7.22-16.56,10.98c-0.56,0.37-1.17,0.4-1.83,0.07l-2.2-1.13c1.36-1.79,2.24-3.1,2.87-4.99
			c-2.82,5.28-7.43,8.39-13.78,7.88C23.5,43.14,28.08,30.28,30.45,22c0.17-0.14,0.34-0.28,0.49-0.4c0,0-0.1-0.13-0.26-0.34
			c0.24,0.11,0.48,0.32,0.71,0.63c0,0,0.23-0.3,0.7-0.9c0.23,0.43,0.36,0.92,0.38,1.47c1.07-0.77,1.69-1.82,1.85-3.13
			c0.09-0.51,0.03-1.12-0.16-1.82c-0.27,0.48-0.5,0.8-0.69,0.97c0.42-0.87,0.76-1.83,0.98-2.86c0.42-1.97,0.43-4.04,0.03-6.21
			c-1.75,1.33-3.08,2.77-3.98,4.34c-0.47,0.73-0.95,1.74-1.41,3.02c0.02-0.39,0.08-0.77,0.18-1.15c-0.79,0.47-1.39,1.15-1.8,2.03
			c-0.39,0.83-0.48,1.76-0.27,2.79c0.32-0.36,0.74-0.64,1.27-0.86c0,0-0.03,0.38-0.09,1.15c0.27-0.06,0.58-0.06,0.92-0.01
			c-0.12,0.04-0.25,0.08-0.39,0.12c0,0,0.01,0.21,0.09,0.61C23.96,31.42,11.57,40.07,0.19,35.08"/>
	</defs>
	<clipPath id="SVGID_00000127022894013598541480000003460352921139905416_">
		<use xlink:href="#SVGID_00000016761194301582903870000004611946099201435062_"  style="overflow:visible;"/>
	</clipPath>
	
		<linearGradient id="SVGID_00000151537351420106447450000000814290570208466358_" gradientUnits="userSpaceOnUse" x1="18.7195" y1="38.5718" x2="27.7592" y2="5.9318">
		<stop  offset="5.327789e-08" style="stop-color:#FA8100"/>
		<stop  offset="1" style="stop-color:#FECC00"/>
	</linearGradient>
	
		<rect x="0.19" y="5.78" style="clip-path:url(#SVGID_00000127022894013598541480000003460352921139905416_);fill:url(#SVGID_00000151537351420106447450000000814290570208466358_);" width="44.83" height="37.5"/>
</g>
<path class="st0" d="M24.64,3.06C10.74,17.76,3.79,25.11,3.79,25.11C20.53,13.61,29.01,7.79,29.01,7.79
	C26.98,4.99,25.83,3.4,25.54,3C25.26,2.61,24.93,2.72,24.64,3.06"/>
<defs>
	<filter id="Adobe_OpacityMaskFilter" filterUnits="userSpaceOnUse" x="30.45" y="9.42" width="14.34" height="21.35">
		<feColorMatrix  type="matrix" values="1 0 0 0 0  0 1 0 0 0  0 0 1 0 0  0 0 0 1 0"/>
	</filter>
</defs>
<mask maskUnits="userSpaceOnUse" x="30.45" y="9.42" width="14.34" height="21.35" id="SVGID_00000109710462752829111550000016083922227961493689_">
	<g class="st4">
		
			<linearGradient id="SVGID_00000085211932738043963500000017200422166363156659_" gradientUnits="userSpaceOnUse" x1="-671.1389" y1="9515.6367" x2="-657.3787" y2="9526.2354" gradientTransform="matrix(1 0 0 1 704.543 -9498.7959)">
			<stop  offset="0" style="stop-color:#474747"/>
			<stop  offset="1" style="stop-color:#474747"/>
		</linearGradient>
		
			<rect x="30.45" y="9.42" style="fill:url(#SVGID_00000085211932738043963500000017200422166363156659_);" width="14.34" height="21.35"/>
	</g>
</mask>
<path style="mask:url(#SVGID_00000109710462752829111550000016083922227961493689_);fill-rule:evenodd;clip-rule:evenodd;fill:#C70001;" d="
	M30.45,22l7.76,5.4l4.83,3.36c0.4-0.27,0.8-0.54,1.2-0.82c0.78-0.54,0.58-1.62,0.27-2.38l-6.99-16.03l-3.05-2.12
	c0.4,2.17,0.4,4.24-0.03,6.21c-0.22,1.02-0.56,1.99-0.98,2.86c0.18-0.17,0.41-0.49,0.69-0.97c0.19,0.7,0.24,1.3,0.16,1.82
	c-0.16,1.31-0.78,2.36-1.85,3.13c-0.02-0.56-0.14-1.05-0.38-1.47c-0.46,0.6-0.7,0.9-0.7,0.9c-0.23-0.31-0.47-0.52-0.71-0.63
	c0.16,0.21,0.26,0.34,0.26,0.34C30.79,21.72,30.63,21.86,30.45,22"/>
<path class="st7" d="M25.4,22.76c0.03,0.48,0.29,0.7,0.75,0.71c-0.47,0-0.72,0.23-0.75,0.71c-0.03-0.48-0.28-0.72-0.75-0.71
	C25.12,23.46,25.37,23.24,25.4,22.76"/>
<path class="st7" d="M13.89,26.06c0.07,1.01,0.6,1.49,1.6,1.51c-1-0.01-1.53,0.49-1.6,1.51c-0.07-1.01-0.6-1.52-1.6-1.51
	C13.29,27.56,13.82,27.08,13.89,26.06"/>
<path class="st7" d="M37.48,16.45c0.03,0.48,0.29,0.7,0.75,0.71c-0.47,0-0.72,0.23-0.75,0.71c-0.03-0.48-0.28-0.72-0.75-0.71
	C37.2,17.16,37.45,16.93,37.48,16.45"/>
<path class="st7" d="M30.71,32.09c0.03,0.48,0.29,0.7,0.75,0.71c-0.47,0-0.72,0.23-0.75,0.71c-0.03-0.48-0.28-0.72-0.75-0.71
	C30.43,32.8,30.68,32.57,30.71,32.09"/>
<path class="st0" d="M13.13,41.47c0,0,10.13-3.25,13.98-14.9C27.11,26.57,25.97,39.45,13.13,41.47z"/>
<path class="st0" d="M9.97,37.89c0,0,9.86-0.72,15.89-10.39C25.86,27.49,22.01,38.88,9.97,37.89z"/>
</svg>
